/* XPM */
static char *fb0603e93a7f437296961d826a88a3e54IYXWOQpR5HyqPaq[] = {
/* columns rows colors chars-per-pixel */
"64 64 219 2 ",
"   c None",
".  c #06030C",
"X  c #091B08",
"o  c #081907",
"O  c #16151C",
"+  c #0D1C13",
"@  c #042D08",
"#  c #072407",
"$  c #11290F",
"%  c #003501",
"&  c #003B01",
"*  c #09380B",
"=  c #112A12",
"-  c #133815",
";  c #1C1923",
":  c #251B2B",
">  c #1F2026",
",  c #24222B",
"<  c #2C2E33",
"1  c #2C2533",
"2  c #352C3B",
"3  c #383C3D",
"4  c #283B2D",
"5  c #004B02",
"6  c #0F450E",
"7  c #1B4918",
"8  c #105B07",
"9  c #026D02",
"0  c #0A6A0A",
"q  c #076506",
"w  c #007500",
"e  c #027B00",
"r  c #0A7B03",
"t  c #0E7905",
"y  c #167B08",
"u  c #186A1A",
"i  c #0F7711",
"p  c #117B13",
"a  c #177218",
"s  c #186E02",
"d  c #2C7E0A",
"f  c #284A2A",
"g  c #225E21",
"h  c #364338",
"j  c #305C32",
"k  c #305623",
"l  c #467839",
"z  c #3B3841",
"x  c #463D4A",
"c  c #3F6146",
"v  c #424645",
"b  c #48494C",
"n  c #4E4450",
"m  c #4E4F52",
"M  c #4A694A",
"N  c #547644",
"B  c #447A5A",
"V  c #5F5260",
"C  c #018400",
"Z  c #038B00",
"A  c #0B8E00",
"S  c #138401",
"D  c #1D8801",
"F  c #0D9400",
"G  c #069000",
"H  c #139400",
"J  c #1B9401",
"K  c #1C9900",
"L  c #199608",
"P  c #138415",
"I  c #1B8518",
"U  c #2B8400",
"Y  c #238900",
"T  c #2A8B00",
"R  c #2C8F0E",
"E  c #249600",
"W  c #259C00",
"Q  c #2B9C00",
"!  c #28960A",
"~  c #339500",
"^  c #399700",
"/  c #339A00",
"(  c #3C9B00",
")  c #3E9C0E",
"_  c #2C9515",
"`  c #2A961B",
"'  c #339916",
"]  c #37851D",
"[  c #2DA100",
"{  c #33A200",
"}  c #3BA500",
"|  c #3EA900",
" . c #389927",
".. c #30892A",
"X. c #3FA124",
"o. c #429C00",
"O. c #4B9E00",
"+. c #489D1B",
"@. c #44A400",
"#. c #4BA400",
"$. c #44AA00",
"%. c #4DAD00",
"&. c #52A401",
"*. c #53AD01",
"=. c #5AA90A",
"-. c #56B101",
";. c #59B201",
":. c #5EB409",
">. c #40A013",
",. c #59AA19",
"<. c #61B605",
"1. c #66B80D",
"2. c #63AD17",
"3. c #69B916",
"4. c #6BB91B",
"5. c #65B615",
"6. c #60AA0D",
"7. c #499727",
"8. c #478838",
"9. c #528C3C",
"0. c #5C973F",
"q. c #56A526",
"w. c #48A03F",
"e. c #5DA935",
"r. c #59A734",
"t. c #63AB34",
"y. c #69AC36",
"u. c #71AF3A",
"i. c #6BB033",
"p. c #72B138",
"a. c #72B335",
"s. c #63AF27",
"d. c #588945",
"f. c #49855B",
"g. c #579452",
"h. c #6C934A",
"j. c #6B974B",
"k. c #749C4B",
"l. c #658A55",
"z. c #689457",
"x. c #729656",
"c. c #729954",
"v. c #789C55",
"b. c #658C47",
"n. c #56A74A",
"m. c #79A348",
"M. c #64AD56",
"N. c #78A559",
"B. c #79B35B",
"V. c #78B540",
"C. c #5C8471",
"Z. c #7E8A7F",
"A. c #5EA564",
"S. c #78B365",
"D. c #77B870",
"F. c #78B870",
"G. c #6CB361",
"H. c #82B954",
"J. c #82B66A",
"K. c #91A17D",
"L. c #85BA79",
"P. c #8DB56E",
"I. c #8CC058",
"U. c #8EC264",
"Y. c #887A86",
"T. c #739286",
"R. c #8A988E",
"E. c #9B9E92",
"W. c #8CBD85",
"Q. c #89B987",
"!. c #B8BBB9",
"~. c #9DC48C",
"^. c #9EC887",
"/. c #95C296",
"(. c #A3C889",
"). c #A5CA98",
"_. c #AED09A",
"`. c #9EC7A1",
"'. c #ACCEAC",
"]. c #A8CAA2",
"[. c #AFD0A8",
"{. c #B3D2AC",
"}. c #B8D5A9",
"|. c #AECDB8",
" X c #AED0B2",
".X c #B5D2B4",
"XX c #B9D7B4",
"oX c #B5D3BA",
"OX c #BBD6BD",
"+X c #BDD8BC",
"@X c #C2DBBC",
"#X c #C1DAB3",
"$X c #BCD7C2",
"%X c #BDD8C3",
"&X c #BCD3CD",
"*X c #BEDBCC",
"=X c #BFCBC2",
"-X c #C1D9C5",
";X c #C4DBCC",
":X c #C5DBCC",
">X c #C9DED3",
",X c #C9DEDA",
"<X c #D3D9D5",
"1X c #C5E4D5",
"2X c #CDE0D3",
"3X c #CDE1DC",
"4X c #D1E3D4",
"5X c #D4E5DB",
"6X c #DAE7DB",
"7X c #C5E2CD",
"8X c #D6E6E1",
"9X c #DAEAE4",
"0X c #DAEAE4",
"qX c #E3EBE6",
"wX c #E9F1EB",
"eX c #F5F9F6",
"rX c #FCFDFD",
"tX c #F5F8F6",
"yX c #EFF5F3",
/* pixels */
"                                                          R.5X4X..I * f                                                         ",
"                                                          T.5X1Xa 0 @ 4                                                         ",
"                                                          C.*X&Xa 0 @ -                                                         ",
"                                                          C. X|.u P * f                                                         ",
"                                                          f.%X3X` A 5 7                                                         ",
"                                                          f.1X8X` Z & 7                                                         ",
"                                                          B 3X8XP C & -                                                         ",
"                                                          B 1X3XP e & =                                                         ",
"                                                          f.1X,XP e & =                                                         ",
"                                                          f.*X,Xp w & =                                                         ",
"                                                          f.&X3Xp e & $                                                         ",
"                                                          f.&X3Xi w & X                                                         ",
"                                                          f.;X,Xi w & X                                                         ",
"                                                          f.*X,Xi w % X                                                         ",
"                                                          A.:X3Xp w % o                                                         ",
"                                                          ].9XqXP e 5 o                                                         ",
"                                                        !.yXrX5X..I 9 @ M                                                       ",
"                                                      K.-XrXyXl.d.z.0 5 c                                                       ",
"                                                    R.<XrXrXrXQ.8.g.y q 5 j                                                     ",
"                                                    6XeXrXrXtX.X7.7.R D w 9 g                                                   ",
"                                                  !.eXeXrXrXrX).q.+.>.^ E A w l                                                 ",
"                                                  6XqXeXrXrXeXU.=.,.,.=.*.} Q y z.                                              ",
"                                                E.}.4XwXeXeXeXI.=.2.2.4.5.;.@./ 8.                                              ",
"                                                K.^.7X5XqXwXeXH.6.s.4.4.3.<.*.@.d                                               ",
"                                                P.L.OX>X6X0XwXV.=.6.4.4.1.<.*.#.U                                               ",
"                                                m.F.OX>X3X0X0Xp.&.=.3.4.1.<.*.#.U                                               ",
"                                                m.D.$X7X2X0X0Xi.&.=.5.5.1.<.*.#.T                                               ",
"                                                m.D.$X2X2X9X0Xp.&.=.1.1.<.;.*.@.T                                               ",
"                                                m.S.$X2X2X6X0Xu.#.&.:.:.;.;.%.} T                                               ",
"                                                m.G.+X2X5X5X9Xi.O.#.-.-.;.-.$.( Y                                               ",
"                                                k.M.$X3X5X5X6Xi.o.O.-.-.-.%.} Q S                                               ",
"                                                k.M.OX2X5X5X0Xy.o.o.*.%.%.$.( E r                                               ",
"                                                h.M.OX4X5X5X0Xt.( o.%.%.$.| / ! e                                               ",
"                                                h.n.oX2X5X8X8Xt.( o.%.$.$.} Q W r                                               ",
"                                                h.n.oX2X<X5X8Xt.( o.$.$.| { W E r                                               ",
"                                                h.n.'.:X2X5X0Xe.^ ( $.} } Q E H e                                               ",
"                                                h.r.'.%X:X2X8Xt./ ( | } { [ J G w                                               ",
"                                                h.w.`.oX:X:X8Xt.^ ( } { [ W H Z 9                                               ",
"                                                c. ./..X$X&X,Xt.~ ( { { [ K G Z 9                                               ",
"                                                c. .W. X$X%X>Xr.~ / [ [ [ J Z C w                                               ",
"                                                x.' Q. X-X%X,Xr.~ ~ Q [ [ F G C w                                               ",
"                                                x.' W. X%X-X,Xr.~ Q [ W K H Z Z w                                               ",
"                                                x._ W. X-X-X:Xr.~ / { W K F Z C w                                               ",
"                                                x.' W.'.%X-X:Xq.~ / { W K F Z Z e                                               ",
"                                                h. .Q.{.-X-X-Xq.~ Q { Q W H G Z e                                               ",
"                                                h. .W.'.+X-X-Xq.~ ~ { Q [ K F Z S                                               ",
"                                                x.` Q.]..X-X+Xe.~ ~ [ Q [ [ W J D                                               ",
"                                                x.` F.)..X-XXXi.^ Q { } } { [ E T                                               ",
"                                                x._ L.].XX-XXXa.( @.$.$.$.} Q E /                                               ",
"                                                x.' L.).XX@X#Xa.&.&.-.-.%.$.{ Q /                                               ",
"                                                v.>.L._.XX@X#Xa.#.&.-.-.%.| { W T                                               ",
"                                                v.) L._.{.+XXXi.@.#.-.%.$.{ W J S                                               ",
"                                                N.' L.).{..X.Xt.o.( } $.| [ L Z S                                               ",
"                                                B.E S.~.{.{.{.t.o.( $.$.| [ J Z r                                               ",
"                                                B.L S.(.].}.{.t.#.#.*.;.%.{ K Z t                                               ",
"                                                N.! S.(._.}._.s.#.#.;.-.%.| Q G t                                               ",
"                                                N.! J.)._.}.(.,.#.#.*.*.$.} Q A t                                               ",
"                                                9.! J.~.(.W.b.k $ 8 s E { W F Z t                                               ",
"                                                8.L B.U.P.9.0.9.f k - # r Z C e 0                                               ",
"                                                d.Z ' 7.8.8.d.d.f h 3 + @ e e e 8                                               ",
"                                                ..Z H ] 9.g.b.N h 3 3 < ; 6 C e 0                                               ",
"                                                B 8 u l j.z.j.N b v 3 < , + & & -                                               ",
"                                                Y.1 : z b m b b v v 3 < : O . . n                                               ",
"                                                  Y.V n n x v x 2 2 1 : : O O n                                                 "
};
