/* XPM */
static char *bb0c49a618264225a10e273b68e9585blckVlYKWpGPjTw6i[] = {
/* columns rows colors chars-per-pixel */
"64 64 230 2 ",
"   c #06030C",
".  c #ffffff",
"X  c #0D1D10",
"o  c #042D08",
"O  c #022703",
"+  c #003B01",
"@  c #063707",
"#  c #163518",
"$  c #172717",
"%  c #1D1923",
"&  c #251B2B",
"*  c #1F2026",
"=  c #24222B",
"-  c #2C2C33",
";  c #352C3B",
":  c #383C3D",
">  c #283A2A",
",  c #004B02",
"<  c #0F450E",
"1  c #105B07",
"2  c #026D02",
"3  c #0A6A0A",
"4  c #076506",
"5  c #007500",
"6  c #027B00",
"7  c #0A7B03",
"8  c #0E7905",
"9  c #167B08",
"0  c #186A1A",
"q  c #0F7711",
"w  c #117B13",
"e  c #177218",
"r  c #186E02",
"t  c #2C7E0A",
"y  c #264E29",
"u  c #364436",
"i  c #39593A",
"p  c #2B5428",
"a  c #497837",
"s  c #3B3841",
"d  c #463D4A",
"f  c #424645",
"g  c #474A4C",
"h  c #475647",
"j  c #504D54",
"k  c #466849",
"l  c #547644",
"z  c #4E6050",
"x  c #4E754A",
"c  c #5C5160",
"v  c #645F65",
"b  c #6C7F6E",
"n  c #716571",
"m  c #018400",
"M  c #038B00",
"N  c #0B8E00",
"B  c #138401",
"V  c #1D8801",
"C  c #0D9400",
"Z  c #069000",
"A  c #139400",
"S  c #1B9401",
"D  c #1C9900",
"F  c #199608",
"G  c #138415",
"H  c #1B8518",
"J  c #2B8400",
"K  c #238900",
"L  c #2A8B00",
"P  c #2C8F0E",
"I  c #249600",
"U  c #259C00",
"Y  c #2B9C00",
"T  c #28960A",
"R  c #339500",
"E  c #399700",
"W  c #339A00",
"Q  c #3C9B00",
"!  c #3E9C0E",
"~  c #2C9515",
"^  c #2A961B",
"/  c #339916",
"(  c #37851D",
")  c #2DA100",
"_  c #33A200",
"`  c #3BA500",
"'  c #3EA900",
"]  c #389927",
"[  c #30892A",
"{  c #3FA124",
"}  c #429C00",
"|  c #4B9E00",
" . c #489D1B",
".. c #44A400",
"X. c #4BA400",
"o. c #44AA00",
"O. c #4DAD00",
"+. c #52A401",
"@. c #53AD01",
"#. c #5AA90A",
"$. c #56B101",
"%. c #59B201",
"&. c #5EB409",
"*. c #40A013",
"=. c #59AA19",
"-. c #61B605",
";. c #66B80D",
":. c #63AD17",
">. c #69B916",
",. c #6BB91B",
"<. c #65B615",
"1. c #60AA0D",
"2. c #499727",
"3. c #478939",
"4. c #528C3C",
"5. c #5C973F",
"6. c #56A526",
"7. c #5DA935",
"8. c #59A734",
"9. c #48A03F",
"0. c #63AB34",
"q. c #69AC36",
"w. c #6BB033",
"e. c #72B138",
"r. c #72B335",
"t. c #6AAF31",
"y. c #588945",
"u. c #5B954F",
"i. c #6C934A",
"p. c #6B974B",
"a. c #749C4B",
"s. c #689457",
"d. c #729656",
"f. c #729954",
"g. c #789C55",
"h. c #64894C",
"j. c #56A74A",
"k. c #79A348",
"l. c #64AD56",
"z. c #78A559",
"x. c #79B35B",
"c. c #78B540",
"v. c #5D9A6A",
"b. c #5E9571",
"n. c #6B8869",
"m. c #639274",
"M. c #639177",
"N. c #78B365",
"B. c #77B870",
"V. c #78B870",
"C. c #6AAF68",
"Z. c #82B954",
"A. c #82B66A",
"S. c #85BA79",
"D. c #8EAE73",
"F. c #8CC058",
"G. c #8EC264",
"H. c #729E85",
"J. c #7CA389",
"K. c #869B8A",
"L. c #819D92",
"P. c #8CBD85",
"I. c #89B987",
"U. c #A6A99E",
"Y. c #A398A1",
"T. c #AEB0B0",
"R. c #9DC48C",
"E. c #9EC887",
"W. c #95C296",
"Q. c #A3C889",
"!. c #A5CB97",
"~. c #AED09A",
"^. c #9EC7A1",
"/. c #ACCEAC",
"(. c #A8C9A3",
"). c #AFD0A8",
"_. c #B3D2AC",
"`. c #B8D5A9",
"'. c #AECDB8",
"]. c #BDC5B8",
"[. c #AED0B2",
"{. c #B5D2B4",
"}. c #B9D7B4",
"|. c #B5D3BA",
" X c #BBD6BD",
".X c #BDD8BC",
"XX c #C3CCBA",
"oX c #C3D8BB",
"OX c #BCD7C2",
"+X c #BDD8C3",
"@X c #BCD3CD",
"#X c #BEDBCC",
"$X c #BFCBC2",
"%X c #C8CFC4",
"&X c #C7C8C6",
"*X c #C1D9C5",
"=X c #C4DBCC",
"-X c #CBD6C7",
";X c #D3DACD",
":X c #D3D7CC",
">X c #C9DED3",
",X c #C9DEDA",
"<X c #D8D6D8",
"1X c #D7D8D6",
"2X c #E0DFDE",
"3X c #CDE0D3",
"4X c #CDE1DC",
"5X c #C5E4D5",
"6X c #D2E3D4",
"7X c #DBE3D5",
"8X c #D4E5DB",
"9X c #DCE5D9",
"0X c #D8E8DF",
"qX c #C5E2CD",
"wX c #E1E5DB",
"eX c #D6E6E1",
"rX c #DAEAE4",
"tX c #DAEAE4",
"yX c #E4E4E3",
"uX c #ECECEB",
"iX c #E5ECE6",
"pX c #F0EFEF",
"aX c #EAF0EA",
"sX c #F0F0EF",
"dX c #F4F4F3",
"fX c #F6F9F6",
"gX c #F8F9F7",
"hX c #FFFFFF",
"jX c #F7F8F9",
"kX c #EFF5F3",
/* pixels */
"hXhXhXhXhXhXhXhXhXhXhXhXhXhXhXhXhXhXhXhXhXhXhXhXhXhXhXhXhXT.,X1X[ H @ K.hXhXhXhXhXhXhXhXhXhXhXhXhXhXhXhXhXhXhXhXhXhXhXhXhXhXhXhX",
"hXhXhXhXhXhXhXhXhXhXhXhXhXhXhXhXhXhXhXhXhXhXhXhXhXhXhXhXdXJ.6X,X0 q o z hXhXhXhXhXhXhXhXhXhXhXhXhXhXhXhXhXhXhXhXhXhXhXhXhXhXhXhX",
"hXhXhXhXhXhXhXhXhXhXhXhXhXhXhXhXhXhXhXhXhXhXhXhXhXhXhXhXuXM.#X@Xe 2 o u hXhXhXhXhXhXhXhXhXhXhXhXhXhXhXhXhXhXhXhXhXhXhXhXhXhXhXhX",
"hXhXhXhXhXhXhXhXhXhXhXhXhXhXhXhXhXhXhXhXhXhXhXhXhXhXhXhXhXL.[.'.e w @ n.hXhXhXhXhXhXhXhXhXhXhXhXhXhXhXhXhXhXhXhXhXhXhXhXhXhXhXhX",
"hXhXhXhXhXhXhXhXhXhXhXhXhXhXhXhXhXhXhXhXhXhXhXhXhXhXhXhXhXJ.#X4X^ N , n.hXhXhXhXhXhXhXhXhXhXhXhXhXhXhXhXhXhXhXhXhXhXhXhXhXhXhXhX",
"hXhXhXhXhXhXhXhXhXhXhXhXhXhXhXhXhXhXhXhXhXhXhXhXhXhXhXhXhXH.qXeX^ m , n.hXhXhXhXhXhXhXhXhXhXhXhXhXhXhXhXhXhXhXhXhXhXhXhXhXhXhXhX",
"hXhXhXhXhXhXhXhXhXhXhXhXhXhXhXhXhXhXhXhXhXhXhXhXhXhXhXhXhXM.5XeXG m + z hXhXhXhXhXhXhXhXhXhXhXhXhXhXhXhXhXhXhXhXhXhXhXhXhXhXhXhX",
"hXhXhXhXhXhXhXhXhXhXhXhXhXhXhXhXhXhXhXhXhXhXhXhXhXhXhXhXhXm.5X4XG 6 + h hXhXhXhXhXhXhXhXhXhXhXhXhXhXhXhXhXhXhXhXhXhXhXhXhXhXhXhX",
"hXhXhXhXhXhXhXhXhXhXhXhXhXhXhXhXhXhXhXhXhXhXhXhXhXhXhXhXhXb.5X4XG 6 + i hXhXhXhXhXhXhXhXhXhXhXhXhXhXhXhXhXhXhXhXhXhXhXhXhXhXhXhX",
"hXhXhXhXhXhXhXhXhXhXhXhXhXhXhXhXhXhXhXhXhXhXhXhXhXhXhXhXhXb.#X,Xw 5 + u hXhXhXhXhXhXhXhXhXhXhXhXhXhXhXhXhXhXhXhXhXhXhXhXhXhXhXhX",
"hXhXhXhXhXhXhXhXhXhXhXhXhXhXhXhXhXhXhXhXhXhXhXhXhXhXhXhXhXb.#X,Xq 6 + u hXhXhXhXhXhXhXhXhXhXhXhXhXhXhXhXhXhXhXhXhXhXhXhXhXhXhXhX",
"hXhXhXhXhXhXhXhXhXhXhXhXhXhXhXhXhXhXhXhXhXhXhXhXhXhXhXhXdXb.@X,Xq 5 + > gXhXhXhXhXhXhXhXhXhXhXhXhXhXhXhXhXhXhXhXhXhXhXhXhXhXhXhX",
"hXhXhXhXhXhXhXhXhXhXhXhXhXhXhXhXhXhXhXhXhXhXhXhXhXhXhXhXdXb.@X,Xq 6 + > dXhXhXhXhXhXhXhXhXhXhXhXhXhXhXhXhXhXhXhXhXhXhXhXhXhXhXhX",
"hXhXhXhXhXhXhXhXhXhXhXhXhXhXhXhXhXhXhXhXhXhXhXhXhXhXhXhXpXv.@X,Xq 5 @ $ uXhXhXhXhXhXhXhXhXhXhXhXhXhXhXhXhXhXhXhXhXhXhXhXhXhXhXhX",
"hXhXhXhXhXhXhXhXhXhXhXhXhXhXhXhXhXhXhXhXhXhXhXhXhXhXhXhXyXC.@XeXw 5 + $ yXhXhXhXhXhXhXhXhXhXhXhXhXhXhXhXhXhXhXhXhXhXhXhXhXhXhXhX",
"hXhXhXhXhXhXhXhXhXhXhXhXhXhXhXhXhXhXhXhXhXhXhXhXhXhXhXhXyX(.rXrXG 6 , X %XhXhXhXhXhXhXhXhXhXhXhXhXhXhXhXhXhXhXhXhXhXhXhXhXhXhXhX",
"hXhXhXhXhXhXhXhXhXhXhXhXhXhXhXhXhXhXhXhXhXhXhXhXhXhXhXhX1XfXjXeX[ H 2 O K.hXhXhXhXhXhXhXhXhXhXhXhXhXhXhXhXhXhXhXhXhXhXhXhXhXhXhX",
"hXhXhXhXhXhXhXhXhXhXhXhXhXhXhXhXhXhXhXhXhXhXhXhXhXhXhXT.$XhXjXu.y.s.3 , k 1XhXhXhXhXhXhXhXhXhXhXhXhXhXhXhXhXhXhXhXhXhXhXhXhXhXhX",
"hXhXhXhXhXhXhXhXhXhXhXhXhXhXhXhXhXhXhXhXhXhXhXhXhXhX].1XhXhXjXI.3.s.q 2 , i *XhXhXhXhXhXhXhXhXhXhXhXhXhXhXhXhXhXhXhXhXhXhXhXhXhX",
"hXhXhXhXhXhXhXhXhXhXhXhXhXhXhXhXhXhXhXhXhXhXhXhXhX:XyXgXhXhXjX[.2.2.P V 6 2 p ;XhXhXhXhXhXhXhXhXhXhXhXhXhXhXhXhXhXhXhXhXhXhXhXhX",
"hXhXhXhXhXhXhXhXhXhXhXhXhXhXhXhXhXhXhXhXhXhXhXhXdXT.gXfXhXhXfX!.6. .! R I N 5 l gXhXhXhXhXhXhXhXhXhXhXhXhXhXhXhXhXhXhXhXhXhXhXhX",
"hXhXhXhXhXhXhXhXhXhXhXhXhXhXhXhXhXhXhXhXhXhXhXhX&X9XaXgXjXjXfXG.#.=.=.#.@.` Y 9 (.hXhXhXhXhXhXhXhXhXhXhXhXhXhXhXhXhXhXhXhXhXhXhX",
"hXhXhXhXhXhXhXhXhXhXhXhXhXhXhXhXhXhXhXhXhXhXhXhXU.}.5XaXfXfXfXF.:.:.:.,.<.%...W 4.hXhXhXhXhXhXhXhXhXhXhXhXhXhXhXhXhXhXhXhXhXhXhX",
"hXhXhXhXhXhXhXhXhXhXhXhXhXhXhXhXhXhXhXhXhXhXhXdXD.R.qX8XiXaXkXF.#.=.,.,.>.-.@...t uXhXhXhXhXhXhXhXhXhXhXhXhXhXhXhXhXhXhXhXhXhXhX",
"hXhXhXhXhXhXhXhXhXhXhXhXhXhXhXhXhXhXhXhXhXhXhX<XD.S..X3X8XtXaXc.#.1.>.,.>.-.@.X.J ;XhXhXhXhXhXhXhXhXhXhXhXhXhXhXhXhXhXhXhXhXhXhX",
"hXhXhXhXhXhXhXhXhXhXhXhXhXhXhXhXhXhXhXhXhXhXhX<Xk.V..X>X8XtXtXe.+.#.>.>.;.-.@.X.J XXhXhXhXhXhXhXhXhXhXhXhXhXhXhXhXhXhXhXhXhXhXhX",
"hXhXhXhXhXhXhXhXhXhXhXhXhXhXhXhXhXhXhXhXhXhXhX<Xk.B.OXqX4XeXtXe.+.#.>.<.;.-.@.X.L XXhXhXhXhXhXhXhXhXhXhXhXhXhXhXhXhXhXhXhXhXhXhX",
"hXhXhXhXhXhXhXhXhXhXhXhXhXhXhXhXhXhXhXhXhXhXhX<Xk.B.OX3X3X8XtXe.+.#.;.;.-.%.@...K XXhXhXhXhXhXhXhXhXhXhXhXhXhXhXhXhXhXhXhXhXhXhX",
"hXhXhXhXhXhXhXhXhXhXhXhXhXhXhXhXhXhXhXhXhXhXhX<Xk.N.+X3X6X0XtXe.| #.&.&.%.%.O.` L XXhXhXhXhXhXhXhXhXhXhXhXhXhXhXhXhXhXhXhXhXhXhX",
"hXhXhXhXhXhXhXhXhXhXhXhXhXhXhXhXhXhXhXhXhXhXhX<Xk.C..X5X8X8XeXe.} X.%.$.%.$.o.W K XXhXhXhXhXhXhXhXhXhXhXhXhXhXhXhXhXhXhXhXhXhXhX",
"hXhXhXhXhXhXhXhXhXhXhXhXhXhXhXhXhXhXhXhXhXhXhX<Xa.l.|.6X8X8X0Xt.} X.$.@.$.O.` W B XXhXhXhXhXhXhXhXhXhXhXhXhXhXhXhXhXhXhXhXhXhXhX",
"hXhXhXhXhXhXhXhXhXhXhXhXhXhXhXhXhXhXhXhXhXhXhX<Xa.l.|.8X8X8X0Xw.Q | @.O.O.o.W Y 7 XXhXhXhXhXhXhXhXhXhXhXhXhXhXhXhXhXhXhXhXhXhXhX",
"hXhXhXhXhXhXhXhXhXhXhXhXhXhXhXhXhXhXhXhXhXhXhX<Xp.l. X6X9XeXeX0.Q | O.O.o.' ) U 7 %XhXhXhXhXhXhXhXhXhXhXhXhXhXhXhXhXhXhXhXhXhXhX",
"hXhXhXhXhXhXhXhXhXhXhXhXhXhXhXhXhXhXhXhXhXhXhX2Xi.j.|.3X8XeXeX0.Q Q O.o.o.` Y I 7 XXhXhXhXhXhXhXhXhXhXhXhXhXhXhXhXhXhXhXhXhXhXhX",
"hXhXhXhXhXhXhXhXhXhXhXhXhXhXhXhXhXhXhXhXhXhXhX2Xi.j.{.3X1X8XeX0.E } X.o.' _ Y S 7 -XhXhXhXhXhXhXhXhXhXhXhXhXhXhXhXhXhXhXhXhXhXhX",
"hXhXhXhXhXhXhXhXhXhXhXhXhXhXhXhXhXhXhXhXhXhXhX2Xi.j.[.=X3X4XtX7.E Q o.' ` Y I S 6 -XhXhXhXhXhXhXhXhXhXhXhXhXhXhXhXhXhXhXhXhXhXhX",
"hXhXhXhXhXhXhXhXhXhXhXhXhXhXhXhXhXhXhXhXhXhXhXyXi.8./.+X>X>XeX0.E Q ` ` ) ) D N 5 :XhXhXhXhXhXhXhXhXhXhXhXhXhXhXhXhXhXhXhXhXhXhX",
"hXhXhXhXhXhXhXhXhXhXhXhXhXhXhXhXhXhXhXhXhXhXhXyXi.9.^.|.=X>X4X0.W W ` ` ) U A M 2 %XhXhXhXhXhXhXhXhXhXhXhXhXhXhXhXhXhXhXhXhXhXhX",
"hXhXhXhXhXhXhXhXhXhXhXhXhXhXhXhXhXhXhXhXhXhXhXiXf.] W.{.OX+X,X0.R Q _ ) ) D Z M 2 -XhXhXhXhXhXhXhXhXhXhXhXhXhXhXhXhXhXhXhXhXhXhX",
"hXhXhXhXhXhXhXhXhXhXhXhXhXhXhXhXhXhXhXhXhXhXhXiXf.] P.[.OX+X>X8.R W _ ) U D M m 5 :XhXhXhXhXhXhXhXhXhXhXhXhXhXhXhXhXhXhXhXhXhXhX",
"hXhXhXhXhXhXhXhXhXhXhXhXhXhXhXhXhXhXhXhXhXhXhXiXf.^ P.[..X+X,X8.R R Y ) ) C M m 5 :XhXhXhXhXhXhXhXhXhXhXhXhXhXhXhXhXhXhXhXhXhXhX",
"hXhXhXhXhXhXhXhXhXhXhXhXhXhXhXhXhXhXhXhXhXhXhXuXd./ P.{.OX=X,X8.R Y ) Y D C Z m 5 :XhXhXhXhXhXhXhXhXhXhXhXhXhXhXhXhXhXhXhXhXhXhX",
"hXhXhXhXhXhXhXhXhXhXhXhXhXhXhXhXhXhXhXhXhXhXhXuXd.~ P.{.+X*X=X8.R W _ U D C M m 5 ;XhXhXhXhXhXhXhXhXhXhXhXhXhXhXhXhXhXhXhXhXhXhX",
"hXhXhXhXhXhXhXhXhXhXhXhXhXhXhXhXhXhXhXhXhXhXhXuXd./ P./.*X*X=X6.R W _ U D C Z M 6 ;XhXhXhXhXhXhXhXhXhXhXhXhXhXhXhXhXhXhXhXhXhXhX",
"hXhXhXhXhXhXhXhXhXhXhXhXhXhXhXhXhXhXhXhXhXhXhXiXi.] P./.+X*XqX6.R Y _ Y U A Z M 7 7XhXhXhXhXhXhXhXhXhXhXhXhXhXhXhXhXhXhXhXhXhXhX",
"hXhXhXhXhXhXhXhXhXhXhXhXhXhXhXhXhXhXhXhXhXhXhXuXi.] P./..X*X.X6.R Y _ Y ) D A M B 7XhXhXhXhXhXhXhXhXhXhXhXhXhXhXhXhXhXhXhXhXhXhX",
"hXhXhXhXhXhXhXhXhXhXhXhXhXhXhXhXhXhXhXhXhXhXhXuXd.^ I.(.{.#X.X0.R R Y _ ) ) U S V 7XhXhXhXhXhXhXhXhXhXhXhXhXhXhXhXhXhXhXhXhXhXhX",
"hXhXhXhXhXhXhXhXhXhXhXhXhXhXhXhXhXhXhXhXhXhXhXuXd.^ V.!.{.+X}.t.E R _ _ ' _ Y I L wXhXhXhXhXhXhXhXhXhXhXhXhXhXhXhXhXhXhXhXhXhXhX",
"hXhXhXhXhXhXhXhXhXhXhXhXhXhXhXhXhXhXhXhXhXhXhXuXd.~ S.(..XoX}.r.} ` o.o.o.` W I W wXhXhXhXhXhXhXhXhXhXhXhXhXhXhXhXhXhXhXhXhXhXhX",
"hXhXhXhXhXhXhXhXhXhXhXhXhXhXhXhXhXhXhXhXhXhXhXsXd./ S.!.}.oXoXr.+.+.$.%.O.o._ Y W wXhXhXhXhXhXhXhXhXhXhXhXhXhXhXhXhXhXhXhXhXhXhX",
"hXhXhXhXhXhXhXhXhXhXhXhXhXhXhXhXhXhXhXhXhXhXhXuXg.*.S.~.}..XoXw.X.+.%.%.O.' Y U L wXhXhXhXhXhXhXhXhXhXhXhXhXhXhXhXhXhXhXhXhXhXhX",
"hXhXhXhXhXhXhXhXhXhXhXhXhXhXhXhXhXhXhXhXhXhXhXdXg.*.S.!._..X}.t.| X.O.O.o._ Y A B 9XhXhXhXhXhXhXhXhXhXhXhXhXhXhXhXhXhXhXhXhXhXhX",
"hXhXhXhXhXhXhXhXhXhXhXhXhXhXhXhXhXhXhXhXhXhXhXdXz./ A.!._.{._.t.Q Q o.o.' ) D N B 9XhXhXhXhXhXhXhXhXhXhXhXhXhXhXhXhXhXhXhXhXhXhX",
"hXhXhXhXhXhXhXhXhXhXhXhXhXhXhXhXhXhXhXhXhXhXhXsXx.T N.!._._._.0.Q Q o.o.' ) A M 7 7XhXhXhXhXhXhXhXhXhXhXhXhXhXhXhXhXhXhXhXhXhXhX",
"hXhXhXhXhXhXhXhXhXhXhXhXhXhXhXhXhXhXhXhXhXhXhXdXx.F x.R.).`.).0.X.X.@.$.O._ D M 7 7XhXhXhXhXhXhXhXhXhXhXhXhXhXhXhXhXhXhXhXhXhXhX",
"hXhXhXhXhXhXhXhXhXhXhXhXhXhXhXhXhXhXhXhXhXhXhXdXz.T N.Q.~.).~.t...X.$.%.O.' Y N 7 ;XhXhXhXhXhXhXhXhXhXhXhXhXhXhXhXhXhXhXhXhXhXhX",
"hXhXhXhXhXhXhXhXhXhXhXhXhXhXhXhXhXhXhXhXhXhXhXdXz.T A.!.~.~.Q.:.X.+.+.@.o.` ) M 8 6XhXhXhXhXhXhXhXhXhXhXhXhXhXhXhXhXhXhXhXhXhXhX",
"hXhXhXhXhXhXhXhXhXhXhXhXhXhXhXhXhXhXhXhXhXhXhXdXy.T A.Q.Q.R.h.p @ 1 r Y ` I C M 8 ;XhXhXhXhXhXhXhXhXhXhXhXhXhXhXhXhXhXhXhXhXhXhX",
"hXhXhXhXhXhXhXhXhXhXhXhXhXhXhXhXhXhXhXhXhXhXhXjX[ F x.G.A.y.5.4.y y # O 8 M m 6 4 :XhXhXhXhXhXhXhXhXhXhXhXhXhXhXhXhXhXhXhXhXhXhX",
"hXhXhXhXhXhXhXhXhXhXhXhXhXhXhXhXhXhXhXhXhXhXhXjXy.N ~  .3.3.h.y.u u : X o 6 m 6 3 :XhXhXhXhXhXhXhXhXhXhXhXhXhXhXhXhXhXhXhXhXhXhX",
"hXhXhXhXhXhXhXhXhXhXhXhXhXhXhXhXhXhXhXhXhXhXhXdX3.M F ( 3.u.h.a u : : - . < M 6 4 :XhXhXhXhXhXhXhXhXhXhXhXhXhXhXhXhXhXhXhXhXhXhX",
"hXhXhXhXhXhXhXhXhXhXhXhXhXhXhXhXhXhXhXhXhXhXhXjXk 4 0 a p.s.p.l g f : - = . + + # 2XhXhXhXhXhXhXhXhXhXhXhXhXhXhXhXhXhXhXhXhXhXhX",
"hXhXhXhXhXhXhXhXhXhXhXhXhXhXhXhXhXhXhXhXhXhXhXhXY.& & s j j g g f f : - & .     j hXhXhXhXhXhXhXhXhXhXhXhXhXhXhXhXhXhXhXhXhXhXhX",
"hXhXhXhXhXhXhXhXhXhXhXhXhXhXhXhXhXhXhXhXhXhXhXhXdXXXn c d g d d ; ; - & % . & v yXhXhXhXhXhXhXhXhXhXhXhXhXhXhXhXhXhXhXhXhXhXhXhX"
};
